<mxfile host="app.diagrams.net" modified="2021-10-25T06:14:19.072Z" agent="5.0 (Windows NT 10.0; Win64; x64) AppleWebKit/537.36 (KHTML, like Gecko) Chrome/95.0.4638.54 Safari/537.36" etag="QfdCeXFhUeaWWkMXiBLs" version="15.5.9" type="github" pages="2">
  <diagram name="Page-1" id="c7488fd3-1785-93aa-aadb-54a6760d102a">
    <mxGraphModel dx="782" dy="412" grid="1" gridSize="10" guides="1" tooltips="1" connect="1" arrows="1" fold="1" page="1" pageScale="1" pageWidth="1100" pageHeight="850" background="none" math="0" shadow="0">
      <root>
        <mxCell id="0" />
        <mxCell id="1" parent="0" />
        <mxCell id="2b4e8129b02d487f-1" value="Pool" style="swimlane;html=1;childLayout=stackLayout;horizontal=1;startSize=20;horizontalStack=0;rounded=0;shadow=0;labelBackgroundColor=none;strokeWidth=1;fontFamily=Verdana;fontSize=8;align=center;" parent="1" vertex="1">
          <mxGeometry x="180" y="70" width="680" height="80" as="geometry" />
        </mxCell>
        <mxCell id="2b4e8129b02d487f-2" value="Lane 1" style="swimlane;html=1;startSize=20;horizontal=0;" parent="2b4e8129b02d487f-1" vertex="1" collapsed="1">
          <mxGeometry y="20" width="680" height="20" as="geometry">
            <mxRectangle y="20" width="680" height="150" as="alternateBounds" />
          </mxGeometry>
        </mxCell>
        <mxCell id="2b4e8129b02d487f-18" style="edgeStyle=orthogonalEdgeStyle;rounded=0;html=1;labelBackgroundColor=none;startArrow=none;startFill=0;startSize=5;endArrow=classicThin;endFill=1;endSize=5;jettySize=auto;orthogonalLoop=1;strokeWidth=1;fontFamily=Verdana;fontSize=8" parent="2b4e8129b02d487f-2" source="2b4e8129b02d487f-5" target="2b4e8129b02d487f-6" edge="1">
          <mxGeometry relative="1" as="geometry" />
        </mxCell>
        <mxCell id="2b4e8129b02d487f-5" value="" style="ellipse;whiteSpace=wrap;html=1;rounded=0;shadow=0;labelBackgroundColor=none;strokeWidth=1;fontFamily=Verdana;fontSize=8;align=center;" parent="2b4e8129b02d487f-2" vertex="1">
          <mxGeometry x="60" y="60" width="30" height="30" as="geometry" />
        </mxCell>
        <mxCell id="2b4e8129b02d487f-6" value="" style="rounded=1;whiteSpace=wrap;html=1;shadow=0;labelBackgroundColor=none;strokeWidth=1;fontFamily=Verdana;fontSize=8;align=center;" parent="2b4e8129b02d487f-2" vertex="1">
          <mxGeometry x="120" y="56.49999999999997" width="70" height="37" as="geometry" />
        </mxCell>
        <mxCell id="2b4e8129b02d487f-20" style="edgeStyle=orthogonalEdgeStyle;rounded=0;html=1;labelBackgroundColor=none;startArrow=none;startFill=0;startSize=5;endArrow=classicThin;endFill=1;endSize=5;jettySize=auto;orthogonalLoop=1;strokeWidth=1;fontFamily=Verdana;fontSize=8" parent="2b4e8129b02d487f-2" source="2b4e8129b02d487f-7" target="2b4e8129b02d487f-8" edge="1">
          <mxGeometry relative="1" as="geometry" />
        </mxCell>
        <mxCell id="2b4e8129b02d487f-7" value="" style="rounded=1;whiteSpace=wrap;html=1;shadow=0;labelBackgroundColor=none;strokeWidth=1;fontFamily=Verdana;fontSize=8;align=center;" parent="2b4e8129b02d487f-2" vertex="1">
          <mxGeometry x="230" y="56.49999999999997" width="70" height="37" as="geometry" />
        </mxCell>
        <mxCell id="2b4e8129b02d487f-8" value="" style="ellipse;whiteSpace=wrap;html=1;rounded=0;shadow=0;labelBackgroundColor=none;strokeWidth=2;fontFamily=Verdana;fontSize=8;align=center;" parent="2b4e8129b02d487f-2" vertex="1">
          <mxGeometry x="330" y="60" width="30" height="30" as="geometry" />
        </mxCell>
        <mxCell id="2b4e8129b02d487f-22" style="edgeStyle=orthogonalEdgeStyle;rounded=0;html=1;entryX=0;entryY=0.5;labelBackgroundColor=none;startArrow=none;startFill=0;startSize=5;endArrow=classicThin;endFill=1;endSize=5;jettySize=auto;orthogonalLoop=1;strokeWidth=1;fontFamily=Verdana;fontSize=8" parent="2b4e8129b02d487f-2" source="2b4e8129b02d487f-9" target="2b4e8129b02d487f-10" edge="1">
          <mxGeometry relative="1" as="geometry" />
        </mxCell>
        <mxCell id="2b4e8129b02d487f-9" value="" style="rounded=1;whiteSpace=wrap;html=1;shadow=0;labelBackgroundColor=none;strokeWidth=1;fontFamily=Verdana;fontSize=8;align=center;" parent="2b4e8129b02d487f-2" vertex="1">
          <mxGeometry x="420" y="56.49999999999997" width="70" height="37" as="geometry" />
        </mxCell>
        <mxCell id="2b4e8129b02d487f-23" style="edgeStyle=orthogonalEdgeStyle;rounded=0;html=1;labelBackgroundColor=none;startArrow=none;startFill=0;startSize=5;endArrow=classicThin;endFill=1;endSize=5;jettySize=auto;orthogonalLoop=1;strokeWidth=1;fontFamily=Verdana;fontSize=8" parent="2b4e8129b02d487f-2" source="2b4e8129b02d487f-10" target="2b4e8129b02d487f-11" edge="1">
          <mxGeometry relative="1" as="geometry" />
        </mxCell>
        <mxCell id="2b4e8129b02d487f-10" value="" style="shape=mxgraph.bpmn.shape;html=1;verticalLabelPosition=bottom;labelBackgroundColor=#ffffff;verticalAlign=top;perimeter=rhombusPerimeter;background=gateway;outline=none;symbol=parallelGw;rounded=1;shadow=0;strokeWidth=1;fontFamily=Verdana;fontSize=8;align=center;" parent="2b4e8129b02d487f-2" vertex="1">
          <mxGeometry x="550" y="60" width="30" height="30" as="geometry" />
        </mxCell>
        <mxCell id="2b4e8129b02d487f-11" value="" style="ellipse;whiteSpace=wrap;html=1;rounded=0;shadow=0;labelBackgroundColor=none;strokeWidth=2;fontFamily=Verdana;fontSize=8;align=center;" parent="2b4e8129b02d487f-2" vertex="1">
          <mxGeometry x="610" y="60" width="30" height="30" as="geometry" />
        </mxCell>
        <mxCell id="2b4e8129b02d487f-3" value="Lane 2" style="swimlane;html=1;startSize=20;horizontal=0;" parent="2b4e8129b02d487f-1" vertex="1" collapsed="1">
          <mxGeometry y="40" width="680" height="20" as="geometry">
            <mxRectangle y="40" width="680" height="150" as="alternateBounds" />
          </mxGeometry>
        </mxCell>
        <mxCell id="2b4e8129b02d487f-26" style="edgeStyle=orthogonalEdgeStyle;rounded=0;html=1;labelBackgroundColor=none;startArrow=none;startFill=0;startSize=5;endArrow=classicThin;endFill=1;endSize=5;jettySize=auto;orthogonalLoop=1;strokeWidth=1;fontFamily=Verdana;fontSize=8" parent="2b4e8129b02d487f-3" source="2b4e8129b02d487f-12" target="2b4e8129b02d487f-13" edge="1">
          <mxGeometry relative="1" as="geometry" />
        </mxCell>
        <mxCell id="2b4e8129b02d487f-12" value="" style="rounded=1;whiteSpace=wrap;html=1;shadow=0;labelBackgroundColor=none;strokeWidth=1;fontFamily=Verdana;fontSize=8;align=center;" parent="2b4e8129b02d487f-3" vertex="1">
          <mxGeometry x="120" y="49.99999999999996" width="70" height="37" as="geometry" />
        </mxCell>
        <mxCell id="2b4e8129b02d487f-13" value="" style="strokeWidth=1;html=1;shape=mxgraph.flowchart.decision;whiteSpace=wrap;rounded=1;shadow=0;labelBackgroundColor=none;fontFamily=Verdana;fontSize=8;align=center;" parent="2b4e8129b02d487f-3" vertex="1">
          <mxGeometry x="250" y="53.499999999999915" width="30" height="30" as="geometry" />
        </mxCell>
        <mxCell id="2b4e8129b02d487f-4" value="Lane 3" style="swimlane;html=1;startSize=20;horizontal=0;" parent="2b4e8129b02d487f-1" vertex="1" collapsed="1">
          <mxGeometry y="60" width="680" height="20" as="geometry">
            <mxRectangle y="60" width="680" height="150" as="alternateBounds" />
          </mxGeometry>
        </mxCell>
        <mxCell id="2b4e8129b02d487f-28" style="edgeStyle=orthogonalEdgeStyle;rounded=0;html=1;labelBackgroundColor=none;startArrow=none;startFill=0;startSize=5;endArrow=classicThin;endFill=1;endSize=5;jettySize=auto;orthogonalLoop=1;strokeWidth=1;fontFamily=Verdana;fontSize=8;" parent="2b4e8129b02d487f-4" source="2b4e8129b02d487f-14" target="2b4e8129b02d487f-15" edge="1">
          <mxGeometry relative="1" as="geometry" />
        </mxCell>
        <mxCell id="2b4e8129b02d487f-14" value="" style="rounded=1;whiteSpace=wrap;html=1;shadow=0;labelBackgroundColor=none;strokeWidth=1;fontFamily=Verdana;fontSize=8;align=center;" parent="2b4e8129b02d487f-4" vertex="1">
          <mxGeometry x="230" y="57.00000000000003" width="70" height="37" as="geometry" />
        </mxCell>
        <mxCell id="2b4e8129b02d487f-29" value="Yes" style="edgeStyle=orthogonalEdgeStyle;rounded=0;html=1;entryX=0;entryY=0.5;labelBackgroundColor=none;startArrow=none;startFill=0;startSize=5;endArrow=classicThin;endFill=1;endSize=5;jettySize=auto;orthogonalLoop=1;strokeWidth=1;fontFamily=Verdana;fontSize=8" parent="2b4e8129b02d487f-4" source="2b4e8129b02d487f-15" target="2b4e8129b02d487f-16" edge="1">
          <mxGeometry x="-0.5006" y="6" relative="1" as="geometry">
            <mxPoint as="offset" />
          </mxGeometry>
        </mxCell>
        <mxCell id="2b4e8129b02d487f-15" value="" style="strokeWidth=1;html=1;shape=mxgraph.flowchart.decision;whiteSpace=wrap;rounded=1;shadow=0;labelBackgroundColor=none;fontFamily=Verdana;fontSize=8;align=center;" parent="2b4e8129b02d487f-4" vertex="1">
          <mxGeometry x="330" y="60.500000000000064" width="30" height="30" as="geometry" />
        </mxCell>
        <mxCell id="2b4e8129b02d487f-30" style="edgeStyle=orthogonalEdgeStyle;rounded=0;html=1;labelBackgroundColor=none;startArrow=none;startFill=0;startSize=5;endArrow=classicThin;endFill=1;endSize=5;jettySize=auto;orthogonalLoop=1;strokeColor=#000000;strokeWidth=1;fontFamily=Verdana;fontSize=8;fontColor=#000000;" parent="2b4e8129b02d487f-4" source="2b4e8129b02d487f-16" target="2b4e8129b02d487f-17" edge="1">
          <mxGeometry relative="1" as="geometry" />
        </mxCell>
        <mxCell id="2b4e8129b02d487f-16" value="" style="shape=mxgraph.bpmn.shape;html=1;verticalLabelPosition=bottom;labelBackgroundColor=#ffffff;verticalAlign=top;perimeter=rhombusPerimeter;background=gateway;outline=none;symbol=parallelGw;rounded=1;shadow=0;strokeWidth=1;fontFamily=Verdana;fontSize=8;align=center;" parent="2b4e8129b02d487f-4" vertex="1">
          <mxGeometry x="440" y="60.500000000000064" width="30" height="30" as="geometry" />
        </mxCell>
        <mxCell id="2b4e8129b02d487f-17" value="" style="rounded=1;whiteSpace=wrap;html=1;shadow=0;labelBackgroundColor=none;strokeWidth=1;fontFamily=Verdana;fontSize=8;align=center;" parent="2b4e8129b02d487f-4" vertex="1">
          <mxGeometry x="530" y="57" width="70" height="37" as="geometry" />
        </mxCell>
        <mxCell id="2b4e8129b02d487f-24" style="edgeStyle=orthogonalEdgeStyle;rounded=0;html=1;labelBackgroundColor=none;startArrow=none;startFill=0;startSize=5;endArrow=classicThin;endFill=1;endSize=5;jettySize=auto;orthogonalLoop=1;strokeWidth=1;fontFamily=Verdana;fontSize=8" parent="2b4e8129b02d487f-1" source="2b4e8129b02d487f-6" target="2b4e8129b02d487f-12" edge="1">
          <mxGeometry relative="1" as="geometry" />
        </mxCell>
        <mxCell id="2b4e8129b02d487f-25" value="No" style="edgeStyle=orthogonalEdgeStyle;rounded=0;html=1;labelBackgroundColor=none;startArrow=none;startFill=0;startSize=5;endArrow=classicThin;endFill=1;endSize=5;jettySize=auto;orthogonalLoop=1;strokeWidth=1;fontFamily=Verdana;fontSize=8" parent="2b4e8129b02d487f-1" source="2b4e8129b02d487f-13" target="2b4e8129b02d487f-7" edge="1">
          <mxGeometry x="-0.9364" y="-15" relative="1" as="geometry">
            <mxPoint as="offset" />
          </mxGeometry>
        </mxCell>
        <mxCell id="2b4e8129b02d487f-27" value="Yes" style="edgeStyle=orthogonalEdgeStyle;rounded=0;html=1;labelBackgroundColor=none;startArrow=none;startFill=0;startSize=5;endArrow=classicThin;endFill=1;endSize=5;jettySize=auto;orthogonalLoop=1;strokeWidth=1;fontFamily=Verdana;fontSize=8" parent="2b4e8129b02d487f-1" source="2b4e8129b02d487f-13" target="2b4e8129b02d487f-14" edge="1">
          <mxGeometry x="-0.8947" y="15" relative="1" as="geometry">
            <mxPoint as="offset" />
          </mxGeometry>
        </mxCell>
        <mxCell id="2b4e8129b02d487f-31" style="edgeStyle=orthogonalEdgeStyle;rounded=0;html=1;entryX=0.5;entryY=1;labelBackgroundColor=none;startArrow=none;startFill=0;startSize=5;endArrow=classicThin;endFill=1;endSize=5;jettySize=auto;orthogonalLoop=1;strokeWidth=1;fontFamily=Verdana;fontSize=8" parent="2b4e8129b02d487f-1" source="2b4e8129b02d487f-17" target="2b4e8129b02d487f-10" edge="1">
          <mxGeometry relative="1" as="geometry" />
        </mxCell>
        <mxCell id="2b4e8129b02d487f-32" value="No" style="edgeStyle=orthogonalEdgeStyle;rounded=0;html=1;labelBackgroundColor=none;startArrow=none;startFill=0;startSize=5;endArrow=classicThin;endFill=1;endSize=5;jettySize=auto;orthogonalLoop=1;strokeWidth=1;fontFamily=Verdana;fontSize=8" parent="2b4e8129b02d487f-1" source="2b4e8129b02d487f-15" target="2b4e8129b02d487f-12" edge="1">
          <mxGeometry x="-0.9529" y="15" relative="1" as="geometry">
            <Array as="points">
              <mxPoint x="345" y="440" />
              <mxPoint x="155" y="440" />
            </Array>
            <mxPoint as="offset" />
          </mxGeometry>
        </mxCell>
        <mxCell id="2b4e8129b02d487f-33" style="edgeStyle=orthogonalEdgeStyle;rounded=0;html=1;labelBackgroundColor=none;startArrow=none;startFill=0;startSize=5;endArrow=classicThin;endFill=1;endSize=5;jettySize=auto;orthogonalLoop=1;strokeWidth=1;fontFamily=Verdana;fontSize=8" parent="2b4e8129b02d487f-1" source="2b4e8129b02d487f-16" target="2b4e8129b02d487f-9" edge="1">
          <mxGeometry relative="1" as="geometry" />
        </mxCell>
      </root>
    </mxGraphModel>
  </diagram>
  <diagram id="av9h4-bqfBj5PJKswYbp" name="Page-2">
    <mxGraphModel dx="782" dy="412" grid="1" gridSize="10" guides="1" tooltips="1" connect="1" arrows="1" fold="1" page="1" pageScale="1" pageWidth="827" pageHeight="1169" math="0" shadow="0">
      <root>
        <mxCell id="liGY0jQ4ESLPU0yBtdnb-0" />
        <mxCell id="liGY0jQ4ESLPU0yBtdnb-1" parent="liGY0jQ4ESLPU0yBtdnb-0" />
        <mxCell id="liGY0jQ4ESLPU0yBtdnb-26" value="" style="edgeStyle=none;rounded=0;orthogonalLoop=1;jettySize=auto;html=1;" edge="1" parent="liGY0jQ4ESLPU0yBtdnb-1" source="liGY0jQ4ESLPU0yBtdnb-2" target="liGY0jQ4ESLPU0yBtdnb-4">
          <mxGeometry relative="1" as="geometry" />
        </mxCell>
        <mxCell id="liGY0jQ4ESLPU0yBtdnb-2" value="请求接口" style="rounded=1;whiteSpace=wrap;html=1;arcSize=25;" vertex="1" parent="liGY0jQ4ESLPU0yBtdnb-1">
          <mxGeometry x="230" y="110" width="90" height="50" as="geometry" />
        </mxCell>
        <mxCell id="liGY0jQ4ESLPU0yBtdnb-27" value="" style="edgeStyle=none;rounded=0;orthogonalLoop=1;jettySize=auto;html=1;" edge="1" parent="liGY0jQ4ESLPU0yBtdnb-1" source="liGY0jQ4ESLPU0yBtdnb-4" target="liGY0jQ4ESLPU0yBtdnb-5">
          <mxGeometry relative="1" as="geometry" />
        </mxCell>
        <mxCell id="liGY0jQ4ESLPU0yBtdnb-61" style="edgeStyle=orthogonalEdgeStyle;rounded=0;orthogonalLoop=1;jettySize=auto;html=1;entryX=0.5;entryY=0;entryDx=0;entryDy=0;" edge="1" parent="liGY0jQ4ESLPU0yBtdnb-1" source="liGY0jQ4ESLPU0yBtdnb-4" target="liGY0jQ4ESLPU0yBtdnb-8">
          <mxGeometry relative="1" as="geometry" />
        </mxCell>
        <mxCell id="liGY0jQ4ESLPU0yBtdnb-4" value="账号校验" style="rhombus;whiteSpace=wrap;html=1;" vertex="1" parent="liGY0jQ4ESLPU0yBtdnb-1">
          <mxGeometry x="245" y="220" width="60" height="40" as="geometry" />
        </mxCell>
        <object label="" id="liGY0jQ4ESLPU0yBtdnb-18">
          <mxCell style="edgeStyle=none;rounded=0;orthogonalLoop=1;jettySize=auto;html=1;" edge="1" parent="liGY0jQ4ESLPU0yBtdnb-1" source="liGY0jQ4ESLPU0yBtdnb-5" target="liGY0jQ4ESLPU0yBtdnb-11">
            <mxGeometry relative="1" as="geometry">
              <Array as="points" />
            </mxGeometry>
          </mxCell>
        </object>
        <mxCell id="liGY0jQ4ESLPU0yBtdnb-30" value="" style="edgeStyle=none;rounded=0;orthogonalLoop=1;jettySize=auto;html=1;" edge="1" parent="liGY0jQ4ESLPU0yBtdnb-1" source="liGY0jQ4ESLPU0yBtdnb-5" target="liGY0jQ4ESLPU0yBtdnb-28">
          <mxGeometry relative="1" as="geometry" />
        </mxCell>
        <mxCell id="liGY0jQ4ESLPU0yBtdnb-5" value="强制刷新" style="rhombus;whiteSpace=wrap;html=1;" vertex="1" parent="liGY0jQ4ESLPU0yBtdnb-1">
          <mxGeometry x="245" y="310" width="60" height="40" as="geometry" />
        </mxCell>
        <mxCell id="liGY0jQ4ESLPU0yBtdnb-8" value="输出返回" style="rounded=1;whiteSpace=wrap;html=1;" vertex="1" parent="liGY0jQ4ESLPU0yBtdnb-1">
          <mxGeometry x="550" y="535" width="90" height="50" as="geometry" />
        </mxCell>
        <mxCell id="liGY0jQ4ESLPU0yBtdnb-19" value="" style="edgeStyle=none;rounded=0;orthogonalLoop=1;jettySize=auto;html=1;" edge="1" parent="liGY0jQ4ESLPU0yBtdnb-1" source="liGY0jQ4ESLPU0yBtdnb-11" target="liGY0jQ4ESLPU0yBtdnb-12">
          <mxGeometry relative="1" as="geometry" />
        </mxCell>
        <mxCell id="liGY0jQ4ESLPU0yBtdnb-11" value="查询档案数据" style="rounded=1;whiteSpace=wrap;html=1;" vertex="1" parent="liGY0jQ4ESLPU0yBtdnb-1">
          <mxGeometry x="400" y="305" width="90" height="50" as="geometry" />
        </mxCell>
        <mxCell id="liGY0jQ4ESLPU0yBtdnb-31" value="" style="edgeStyle=none;rounded=0;orthogonalLoop=1;jettySize=auto;html=1;" edge="1" parent="liGY0jQ4ESLPU0yBtdnb-1" source="liGY0jQ4ESLPU0yBtdnb-12" target="liGY0jQ4ESLPU0yBtdnb-28">
          <mxGeometry relative="1" as="geometry" />
        </mxCell>
        <mxCell id="liGY0jQ4ESLPU0yBtdnb-63" style="edgeStyle=orthogonalEdgeStyle;rounded=0;orthogonalLoop=1;jettySize=auto;html=1;entryX=0.5;entryY=0;entryDx=0;entryDy=0;" edge="1" parent="liGY0jQ4ESLPU0yBtdnb-1" source="liGY0jQ4ESLPU0yBtdnb-12" target="liGY0jQ4ESLPU0yBtdnb-8">
          <mxGeometry relative="1" as="geometry" />
        </mxCell>
        <mxCell id="liGY0jQ4ESLPU0yBtdnb-12" value="是否存在" style="rhombus;whiteSpace=wrap;html=1;" vertex="1" parent="liGY0jQ4ESLPU0yBtdnb-1">
          <mxGeometry x="414" y="430" width="60" height="40" as="geometry" />
        </mxCell>
        <mxCell id="liGY0jQ4ESLPU0yBtdnb-13" style="edgeStyle=none;rounded=0;orthogonalLoop=1;jettySize=auto;html=1;exitX=1;exitY=1;exitDx=0;exitDy=0;" edge="1" parent="liGY0jQ4ESLPU0yBtdnb-1" source="liGY0jQ4ESLPU0yBtdnb-12" target="liGY0jQ4ESLPU0yBtdnb-12">
          <mxGeometry relative="1" as="geometry" />
        </mxCell>
        <mxCell id="liGY0jQ4ESLPU0yBtdnb-20" value="否" style="text;html=1;resizable=0;autosize=1;align=center;verticalAlign=middle;points=[];fillColor=none;strokeColor=none;rounded=0;" vertex="1" parent="liGY0jQ4ESLPU0yBtdnb-1">
          <mxGeometry x="335" y="335" width="30" height="20" as="geometry" />
        </mxCell>
        <mxCell id="liGY0jQ4ESLPU0yBtdnb-37" value="" style="edgeStyle=none;rounded=0;orthogonalLoop=1;jettySize=auto;html=1;" edge="1" parent="liGY0jQ4ESLPU0yBtdnb-1" source="liGY0jQ4ESLPU0yBtdnb-22" target="liGY0jQ4ESLPU0yBtdnb-36">
          <mxGeometry relative="1" as="geometry" />
        </mxCell>
        <mxCell id="liGY0jQ4ESLPU0yBtdnb-56" style="edgeStyle=orthogonalEdgeStyle;rounded=0;orthogonalLoop=1;jettySize=auto;html=1;" edge="1" parent="liGY0jQ4ESLPU0yBtdnb-1" source="liGY0jQ4ESLPU0yBtdnb-22" target="liGY0jQ4ESLPU0yBtdnb-8">
          <mxGeometry relative="1" as="geometry" />
        </mxCell>
        <mxCell id="liGY0jQ4ESLPU0yBtdnb-22" value="请求外部接口" style="rounded=1;whiteSpace=wrap;html=1;" vertex="1" parent="liGY0jQ4ESLPU0yBtdnb-1">
          <mxGeometry x="232.5" y="535" width="90" height="50" as="geometry" />
        </mxCell>
        <mxCell id="liGY0jQ4ESLPU0yBtdnb-32" value="" style="edgeStyle=none;rounded=0;orthogonalLoop=1;jettySize=auto;html=1;" edge="1" parent="liGY0jQ4ESLPU0yBtdnb-1" source="liGY0jQ4ESLPU0yBtdnb-28" target="liGY0jQ4ESLPU0yBtdnb-22">
          <mxGeometry relative="1" as="geometry" />
        </mxCell>
        <mxCell id="liGY0jQ4ESLPU0yBtdnb-28" value="接口校验" style="rhombus;whiteSpace=wrap;html=1;" vertex="1" parent="liGY0jQ4ESLPU0yBtdnb-1">
          <mxGeometry x="250" y="430" width="55" height="40" as="geometry" />
        </mxCell>
        <mxCell id="liGY0jQ4ESLPU0yBtdnb-36" value="数据持久化" style="rounded=1;whiteSpace=wrap;html=1;" vertex="1" parent="liGY0jQ4ESLPU0yBtdnb-1">
          <mxGeometry x="50" y="535" width="90" height="50" as="geometry" />
        </mxCell>
        <mxCell id="liGY0jQ4ESLPU0yBtdnb-38" value="否" style="text;html=1;resizable=0;autosize=1;align=center;verticalAlign=middle;points=[];fillColor=none;strokeColor=none;rounded=0;" vertex="1" parent="liGY0jQ4ESLPU0yBtdnb-1">
          <mxGeometry x="340" y="450" width="30" height="20" as="geometry" />
        </mxCell>
        <mxCell id="liGY0jQ4ESLPU0yBtdnb-39" value="是" style="text;html=1;resizable=0;autosize=1;align=center;verticalAlign=middle;points=[];fillColor=none;strokeColor=none;rounded=0;" vertex="1" parent="liGY0jQ4ESLPU0yBtdnb-1">
          <mxGeometry x="275" y="490" width="30" height="20" as="geometry" />
        </mxCell>
        <mxCell id="liGY0jQ4ESLPU0yBtdnb-57" value="是" style="text;html=1;resizable=0;autosize=1;align=center;verticalAlign=middle;points=[];fillColor=none;strokeColor=none;rounded=0;" vertex="1" parent="liGY0jQ4ESLPU0yBtdnb-1">
          <mxGeometry x="510" y="460" width="30" height="20" as="geometry" />
        </mxCell>
        <mxCell id="liGY0jQ4ESLPU0yBtdnb-58" value="是" style="text;html=1;resizable=0;autosize=1;align=center;verticalAlign=middle;points=[];fillColor=none;strokeColor=none;rounded=0;" vertex="1" parent="liGY0jQ4ESLPU0yBtdnb-1">
          <mxGeometry x="280" y="370" width="30" height="20" as="geometry" />
        </mxCell>
        <mxCell id="liGY0jQ4ESLPU0yBtdnb-59" value="是" style="text;html=1;resizable=0;autosize=1;align=center;verticalAlign=middle;points=[];fillColor=none;strokeColor=none;rounded=0;" vertex="1" parent="liGY0jQ4ESLPU0yBtdnb-1">
          <mxGeometry x="275" y="270" width="30" height="20" as="geometry" />
        </mxCell>
        <mxCell id="liGY0jQ4ESLPU0yBtdnb-62" value="否" style="text;html=1;resizable=0;autosize=1;align=center;verticalAlign=middle;points=[];fillColor=none;strokeColor=none;rounded=0;" vertex="1" parent="liGY0jQ4ESLPU0yBtdnb-1">
          <mxGeometry x="444" y="240" width="30" height="20" as="geometry" />
        </mxCell>
      </root>
    </mxGraphModel>
  </diagram>
</mxfile>
